<svg xmlns="http://www.w3.org/2000/svg" viewBox="0 0 128 128">
  <defs>
    <linearGradient id="aqsBody" x1="0" y1="0" x2="0" y2="1">
      <stop offset="0%" stop-color="#2a3a45"/>
      <stop offset="100%" stop-color="#1a2530"/>
    </linearGradient>
    <linearGradient id="aqsPCB" x1="0" y1="0" x2="0" y2="1">
      <stop offset="0%" stop-color="#1a2820"/>
      <stop offset="100%" stop-color="#0f1a14"/>
    </linearGradient>
  </defs>
  <!-- Housing body -->
  <rect x="14" y="10" width="100" height="108" rx="8" fill="url(#aqsBody)"/>
  <rect x="14" y="10" width="100" height="108" rx="8" fill="none" stroke="#445566" stroke-width="1.2" opacity="0.5"/>
  <!-- Top chrome trim -->
  <rect x="14" y="10" width="100" height="6" rx="4" fill="#445566" opacity="0.5"/>
  <!-- Mesh intake (left half top) -->
  <rect x="18" y="20" width="42" height="38" rx="4" fill="#1a2030"/>
  <rect x="18" y="20" width="42" height="38" rx="4" fill="none" stroke="#334455" stroke-width="0.7"/>
  <!-- Mesh pattern (dots array) -->
  <circle cx="24" cy="26" r="1.5" fill="#2a3845"/><circle cx="32" cy="26" r="1.5" fill="#2a3845"/><circle cx="40" cy="26" r="1.5" fill="#2a3845"/><circle cx="48" cy="26" r="1.5" fill="#2a3845"/><circle cx="56" cy="26" r="1.5" fill="#2a3845"/>
  <circle cx="24" cy="32" r="1.5" fill="#2a3845"/><circle cx="32" cy="32" r="1.5" fill="#2a3845"/><circle cx="40" cy="32" r="1.5" fill="#2a3845"/><circle cx="48" cy="32" r="1.5" fill="#2a3845"/><circle cx="56" cy="32" r="1.5" fill="#2a3845"/>
  <circle cx="24" cy="38" r="1.5" fill="#2a3845"/><circle cx="32" cy="38" r="1.5" fill="#2a3845"/><circle cx="40" cy="38" r="1.5" fill="#2a3845"/><circle cx="48" cy="38" r="1.5" fill="#2a3845"/><circle cx="56" cy="38" r="1.5" fill="#2a3845"/>
  <circle cx="24" cy="44" r="1.5" fill="#2a3845"/><circle cx="32" cy="44" r="1.5" fill="#2a3845"/><circle cx="40" cy="44" r="1.5" fill="#2a3845"/><circle cx="48" cy="44" r="1.5" fill="#2a3845"/><circle cx="56" cy="44" r="1.5" fill="#2a3845"/>
  <circle cx="24" cy="50" r="1.5" fill="#2a3845"/><circle cx="32" cy="50" r="1.5" fill="#2a3845"/><circle cx="40" cy="50" r="1.5" fill="#2a3845"/><circle cx="48" cy="50" r="1.5" fill="#2a3845"/><circle cx="56" cy="50" r="1.5" fill="#2a3845"/>
  <!-- PCB visible section (right top) -->
  <rect x="64" y="20" width="46" height="38" rx="4" fill="url(#aqsPCB)"/>
  <rect x="64" y="20" width="46" height="38" rx="4" fill="none" stroke="#2a4030" stroke-width="0.7"/>
  <!-- PCB traces -->
  <line x1="68" y1="26" x2="90" y2="26" stroke="#2a5030" stroke-width="0.8"/>
  <line x1="68" y1="32" x2="80" y2="32" stroke="#2a5030" stroke-width="0.8"/>
  <line x1="80" y1="26" x2="80" y2="44" stroke="#2a5030" stroke-width="0.8"/>
  <line x1="86" y1="32" x2="106" y2="32" stroke="#2a5030" stroke-width="0.8"/>
  <line x1="94" y1="26" x2="94" y2="40" stroke="#2a5030" stroke-width="0.8"/>
  <!-- IC on PCB -->
  <rect x="68" y="34" width="14" height="10" rx="1" fill="#1a2820"/>
  <rect x="68" y="34" width="14" height="10" rx="1" fill="none" stroke="#3a5040" stroke-width="0.5"/>
  <!-- Sensor chip -->
  <rect x="88" y="38" width="12" height="10" rx="1" fill="#1a2820"/>
  <!-- LED array (multiple colors) -->
  <rect x="18" y="62" width="92" height="16" rx="3" fill="#1a2030"/>
  <rect x="18" y="62" width="92" height="16" rx="3" fill="none" stroke="#334455" stroke-width="0.7"/>
  <circle cx="30" cy="70" r="4" fill="#1a2030"/><circle cx="30" cy="70" r="2.5" fill="#ffffff" opacity="0.8"/>
  <circle cx="44" cy="70" r="4" fill="#1a2030"/><circle cx="44" cy="70" r="2.5" fill="#ffffff" opacity="0.6"/>
  <circle cx="58" cy="70" r="4" fill="#1a2030"/><circle cx="58" cy="70" r="2.5" fill="#ffffff" opacity="0.4"/>
  <circle cx="72" cy="70" r="4" fill="#1a2030"/><circle cx="72" cy="70" r="2.5" fill="#ffffff" opacity="0.3"/>
  <circle cx="86" cy="70" r="4" fill="#1a2030"/><circle cx="86" cy="70" r="2.5" fill="#ffffff" opacity="0.3"/>
  <circle cx="100" cy="70" r="4" fill="#1a2030"/><circle cx="100" cy="70" r="2.5" fill="#ffffff" opacity="0.4"/>
  <!-- Connector block -->
  <rect x="18" y="82" width="92" height="18" rx="3" fill="#1a2030"/>
  <rect x="18" y="82" width="92" height="18" rx="3" fill="none" stroke="#334455" stroke-width="0.7"/>
  <rect x="22" y="85" width="12" height="10" rx="1" fill="#2a3845"/><circle cx="28" cy="90" r="2" fill="#334455"/><circle cx="28" cy="90" r="1" fill="#667788"/>
  <rect x="36" y="85" width="12" height="10" rx="1" fill="#2a3845"/><circle cx="42" cy="90" r="2" fill="#334455"/>
  <rect x="50" y="85" width="12" height="10" rx="1" fill="#2a3845"/><circle cx="56" cy="90" r="2" fill="#334455"/>
  <rect x="64" y="85" width="12" height="10" rx="1" fill="#2a3845"/><circle cx="70" cy="90" r="2" fill="#334455"/>
  <rect x="78" y="85" width="12" height="10" rx="1" fill="#2a3845"/><circle cx="84" cy="90" r="2" fill="#334455"/>
  <rect x="92" y="85" width="12" height="10" rx="1" fill="#2a3845"/><circle cx="98" cy="90" r="2" fill="#334455"/>
  <!-- Bottom cable area -->
  <rect x="40" y="104" width="48" height="10" rx="3" fill="#1a2030"/>
  <!-- Mounting holes -->
  <circle cx="22" cy="16" r="2.5" fill="#1a2030"/><circle cx="22" cy="16" r="1.5" fill="#334455"/>
  <circle cx="106" cy="16" r="2.5" fill="#1a2030"/><circle cx="106" cy="16" r="1.5" fill="#334455"/>
</svg>
