<svg xmlns="http://www.w3.org/2000/svg" viewBox="0 0 720 320" role="img" aria-label="MBSE: prose vs structured specification" class="dgm">
<text x="360" y="32" text-anchor="middle" font-size="14" font-weight="600" fill="#2a2622">From "vibe" to working recipe</text>
<!-- Vague prose paper -->
<g transform="translate(60,80)">
  <rect width="180" height="200" rx="4" fill="#fdfbf7" stroke="#6b6660" stroke-width="1.5"/>
  <line x1="18" y1="30" x2="162" y2="30" stroke="#6b6660" stroke-width="1" opacity="0.5"/>
  <line x1="18" y1="46" x2="150" y2="46" stroke="#6b6660" stroke-width="1" opacity="0.5"/>
  <line x1="18" y1="62" x2="162" y2="62" stroke="#6b6660" stroke-width="1" opacity="0.5"/>
  <line x1="18" y1="78" x2="120" y2="78" stroke="#6b6660" stroke-width="1" opacity="0.5"/>
  <line x1="18" y1="94" x2="155" y2="94" stroke="#6b6660" stroke-width="1" opacity="0.5"/>
  <text x="90" y="130" text-anchor="middle" font-size="40" fill="#8b3a1f" opacity="0.6">?</text>
  <line x1="18" y1="158" x2="162" y2="158" stroke="#6b6660" stroke-width="1" opacity="0.5"/>
  <line x1="18" y1="174" x2="140" y2="174" stroke="#6b6660" stroke-width="1" opacity="0.5"/>
  <text x="90" y="180" text-anchor="middle" font-size="11" font-weight="600" fill="#2a2622">"Add a bit of salt</text>
  <text x="90" y="195" text-anchor="middle" font-size="11" font-weight="600" fill="#2a2622">and bake until done."</text>
</g>
<text x="150" y="298" text-anchor="middle" font-size="11" font-style="italic" fill="#6b6660">prose specification</text>
<line x1="265" y1="180" x2="353" y2="180" stroke="#8b3a1f" stroke-width="2.5" stroke-linecap="round"/>
<polygon points="360,180 353,184 353,176" fill="#8b3a1f"/>
<text x="312" y="170" text-anchor="middle" font-size="10" font-weight="600" fill="#8b3a1f">MBSE</text>
<!-- Structured spec -->
<g transform="translate(380,80)">
  <rect width="280" height="200" rx="4" fill="#fdfbf7" stroke="#2a2622" stroke-width="1.5"/>
  <!-- requirements table -->
  <rect x="14" y="18" width="120" height="80" rx="3" fill="#f3ece6" stroke="#2a2622" stroke-width="1"/>
  <text x="74" y="36" text-anchor="middle" font-size="9" font-weight="700" fill="#8b3a1f">REQUIREMENTS</text>
  <line x1="22" y1="46" x2="126" y2="46" stroke="#2a2622" stroke-width="0.8"/>
  <line x1="22" y1="58" x2="100" y2="58" stroke="#2a2622" stroke-width="0.8"/>
  <line x1="22" y1="70" x2="116" y2="70" stroke="#2a2622" stroke-width="0.8"/>
  <line x1="22" y1="82" x2="92" y2="82" stroke="#2a2622" stroke-width="0.8"/>
  <!-- arch diagram -->
  <g transform="translate(148,18)">
    <rect width="118" height="80" rx="3" fill="#dde7ec" stroke="#2a2622" stroke-width="1"/>
    <text x="59" y="34" text-anchor="middle" font-size="9" font-weight="700" fill="#2a5a7a">ARCHITECTURE</text>
    <rect x="14" y="44" width="22" height="14" fill="#fdfbf7" stroke="#2a2622" stroke-width="0.8"/>
    <rect x="48" y="44" width="22" height="14" fill="#fdfbf7" stroke="#2a2622" stroke-width="0.8"/>
    <rect x="82" y="44" width="22" height="14" fill="#fdfbf7" stroke="#2a2622" stroke-width="0.8"/>
    <line x1="36" y1="51" x2="48" y2="51" stroke="#2a2622" stroke-width="0.8"/>
    <line x1="70" y1="51" x2="82" y2="51" stroke="#2a2622" stroke-width="0.8"/>
    <rect x="32" y="64" width="54" height="10" fill="#fdfbf7" stroke="#2a2622" stroke-width="0.8"/>
  </g>
  <!-- interfaces -->
  <rect x="14" y="108" width="120" height="74" rx="3" fill="#e2ebde" stroke="#2a2622" stroke-width="1"/>
  <text x="74" y="126" text-anchor="middle" font-size="9" font-weight="700" fill="#3a5a3a">INTERFACES</text>
  <text x="22" y="142" font-size="8" font-family="monospace" fill="#2a2622">{ ts, room, value }</text>
  <text x="22" y="156" font-size="8" font-family="monospace" fill="#2a2622">PUT /act/{id}</text>
  <text x="22" y="170" font-size="8" font-family="monospace" fill="#2a2622">QoS: 1</text>
  <!-- behaviour -->
  <rect x="148" y="108" width="118" height="74" rx="3" fill="#f4ead9" stroke="#2a2622" stroke-width="1"/>
  <text x="207" y="126" text-anchor="middle" font-size="9" font-weight="700" fill="#7a5a1a">BEHAVIOUR</text>
  <circle cx="166" cy="146" r="6" fill="#fdfbf7" stroke="#2a2622" stroke-width="0.8"/>
  <circle cx="190" cy="146" r="6" fill="#fdfbf7" stroke="#2a2622" stroke-width="0.8"/>
  <circle cx="214" cy="146" r="6" fill="#fdfbf7" stroke="#2a2622" stroke-width="0.8"/>
  <circle cx="238" cy="146" r="6" fill="#fdfbf7" stroke="#2a2622" stroke-width="0.8"/>
  <line x1="172" y1="146" x2="184" y2="146" stroke="#2a2622" stroke-width="0.8"/>
  <line x1="196" y1="146" x2="208" y2="146" stroke="#2a2622" stroke-width="0.8"/>
  <line x1="220" y1="146" x2="232" y2="146" stroke="#2a2622" stroke-width="0.8"/>
  <text x="207" y="172" text-anchor="middle" font-size="8" font-family="monospace" fill="#2a2622">Start → Run → Stop</text>
</g>
<text x="520" y="298" text-anchor="middle" font-size="11" font-style="italic" fill="#6b6660">structured artefacts</text>
</svg>
