<svg xmlns="http://www.w3.org/2000/svg" viewBox="0 0 720 380" role="img" aria-label="A worked HVAC control system" class="dgm">
<text x="360" y="30" text-anchor="middle" font-size="14" font-weight="600" fill="#2a2622">A full HVAC control system, placed</text>
<!-- Top: building/sensors -->
<g transform="translate(40,60)">
  <rect width="640" height="64" rx="10" fill="#f3ece6" stroke="#2a2622" stroke-width="1.5"/>
  <text x="20" y="22" font-size="11" font-weight="700" letter-spacing="1.5" fill="#8b3a1f">SENSORS &amp; ACTUATORS</text>
  <g transform="translate(160,42)">
    <circle cx="0" cy="0" r="11" fill="#fdfbf7" stroke="#2a2622" stroke-width="1.4"/>
    <circle cx="0" cy="0" r="3.3000000000000003" fill="#8b3a1f"/>
    <path d="M -8.8 -11 Q -13.200000000000001 -15.400000000000002 -8.8 -19.8" fill="none" stroke="#6b6660" stroke-width="1.2"/>
    <path d="M 8.8 -11 Q 13.200000000000001 -15.400000000000002 8.8 -19.8" fill="none" stroke="#6b6660" stroke-width="1.2"/>
  </g><text x="160" y="64" text-anchor="middle" font-size="9" fill="#2a2622">temp</text>
  <g transform="translate(220,42)">
    <circle cx="0" cy="0" r="11" fill="#fdfbf7" stroke="#2a2622" stroke-width="1.4"/>
    <circle cx="0" cy="0" r="3.3000000000000003" fill="#8b3a1f"/>
    <path d="M -8.8 -11 Q -13.200000000000001 -15.400000000000002 -8.8 -19.8" fill="none" stroke="#6b6660" stroke-width="1.2"/>
    <path d="M 8.8 -11 Q 13.200000000000001 -15.400000000000002 8.8 -19.8" fill="none" stroke="#6b6660" stroke-width="1.2"/>
  </g><text x="220" y="64" text-anchor="middle" font-size="9" fill="#2a2622">CO₂</text>
  <g transform="translate(280,42)">
    <circle cx="0" cy="0" r="11" fill="#fdfbf7" stroke="#2a2622" stroke-width="1.4"/>
    <circle cx="0" cy="0" r="3.3000000000000003" fill="#8b3a1f"/>
    <path d="M -8.8 -11 Q -13.200000000000001 -15.400000000000002 -8.8 -19.8" fill="none" stroke="#6b6660" stroke-width="1.2"/>
    <path d="M 8.8 -11 Q 13.200000000000001 -15.400000000000002 8.8 -19.8" fill="none" stroke="#6b6660" stroke-width="1.2"/>
  </g><text x="280" y="64" text-anchor="middle" font-size="9" fill="#2a2622">occ.</text>
  <g transform="translate(420,30)"><rect width="28" height="20" rx="4" fill="#fdfbf7" stroke="#2a2622" stroke-width="1.3"/><circle cx="8" cy="10" r="4" fill="#8b3a1f"/></g>
  <text x="434" y="64" text-anchor="middle" font-size="9" fill="#2a2622">fan</text>
  <g transform="translate(480,30)"><rect width="28" height="20" rx="4" fill="#fdfbf7" stroke="#2a2622" stroke-width="1.3"/><circle cx="8" cy="10" r="4" fill="#8b3a1f"/></g>
  <text x="494" y="64" text-anchor="middle" font-size="9" fill="#2a2622">damper</text>
</g>
<!-- Middle: broker -->
<g transform="translate(220,150)">
  <rect width="280" height="38" rx="8" fill="#dde7ec" stroke="#2a2622" stroke-width="1.5"/>
  <text x="140" y="22" text-anchor="middle" font-size="11" font-weight="700" fill="#2a5a7a">MQTT BROKER · sensors/* · actuators/*</text>
</g>
<!-- Bottom row: services -->
  <g transform="translate(40,220)">
    <rect width="120" height="110" rx="10" fill="#f4ead9" stroke="#2a2622" stroke-width="1.5"/>
    <polyline points="20,38 32,28 44,32 56,22 68,30 80,18 92,24" fill="none" stroke="#8b3a1f" stroke-width="1.5"/>
    <text x="60" y="80" text-anchor="middle" font-size="11" font-weight="600" fill="#2a2622">Forecast service</text>
    <text x="60" y="96" text-anchor="middle" font-size="9.5" fill="#6b6660">next-hour temp</text>
  </g>
  <g transform="translate(200,220)">
    <rect width="120" height="110" rx="10" fill="#f0d9d1" stroke="#2a2622" stroke-width="1.5"/>
    <g transform="translate(56,32)"><g><circle cx="0" cy="0" r="18" fill="#8b3a1f" opacity="0.9"/>
    <text x="0" y="5" text-anchor="middle" font-size="12.6" font-weight="700" fill="#fdfbf7">AI</text></g></g>
    <text x="60" y="80" text-anchor="middle" font-size="11" font-weight="600" fill="#2a2622">HVAC controller</text>
    <text x="60" y="96" text-anchor="middle" font-size="9.5" fill="#6b6660">optimise comfort</text>
  </g>
  <g transform="translate(360,220)">
    <rect width="120" height="110" rx="10" fill="#e2ebde" stroke="#2a2622" stroke-width="1.5"/>
    <rect x="32" y="20" width="48" height="32" rx="3" fill="#fdfbf7" stroke="#2a2622" stroke-width="1"/><line x1="32" y1="28" x2="80" y2="28" stroke="#2a2622" stroke-width="0.8"/><line x1="48" y1="20" x2="48" y2="52" stroke="#2a2622" stroke-width="0.6"/><line x1="64" y1="20" x2="64" y2="52" stroke="#2a2622" stroke-width="0.6"/><circle cx="56" cy="40" r="3" fill="#8b3a1f"/>
    <text x="60" y="80" text-anchor="middle" font-size="11" font-weight="600" fill="#2a2622">Schedule</text>
    <text x="60" y="96" text-anchor="middle" font-size="9.5" fill="#6b6660">occupancy rules</text>
  </g>
  <g transform="translate(520,220)">
    <rect width="120" height="110" rx="10" fill="#f3ece6" stroke="#2a2622" stroke-width="1.5"/>
    <g transform="translate(56,36)"><g>
    <ellipse cx="0" cy="-14" rx="20" ry="6" fill="#dde7ec" stroke="#2a2622" stroke-width="1.4"/>
    <path d="M -20 -14 L -20 14 Q 0 22 20 14 L 20 -14" fill="#dde7ec" stroke="#2a2622" stroke-width="1.4"/>
    <ellipse cx="0" cy="-14" rx="20" ry="6" fill="none" stroke="#2a2622" stroke-width="1.4"/>
    <ellipse cx="0" cy="-4" rx="18" ry="5" fill="none" stroke="#2a2622" stroke-width="0.8" opacity="0.5"/>
    <ellipse cx="0" cy="8" rx="17" ry="5" fill="none" stroke="#2a2622" stroke-width="0.8" opacity="0.5"/>
  </g></g>
    <text x="60" y="80" text-anchor="middle" font-size="11" font-weight="600" fill="#2a2622">Time-series DB</text>
    <text x="60" y="96" text-anchor="middle" font-size="9.5" fill="#6b6660">history · 6 months</text>
  </g>
<!-- arrows: top -> broker -->
<line x1="220" y1="125" x2="293.27251487249083" y2="146.06584802584112" stroke="#8b3a1f" stroke-width="1.5" stroke-linecap="round"/>
<polygon points="300,148 292.16728517297145,149.91012524156065 294.3777445720102,142.2215708101216" fill="#8b3a1f"/>
<line x1="500" y1="125" x2="426.72748512750917" y2="146.06584802584112" stroke="#8b3a1f" stroke-width="1.5" stroke-linecap="round"/>
<polygon points="420,148 425.6222554279898,142.2215708101216 427.83271482702855,149.91012524156065" fill="#8b3a1f"/>
<!-- arrows: broker -> services -->
<line x1="280" y1="190" x2="106.904757466825" y2="218.8492070888625" stroke="#6b6660" stroke-width="1.3" stroke-linecap="round"/>
<polygon points="100,220 106.24716151760357,214.9036313935339 107.56235341604643,222.79478278419109" fill="#6b6660"/>
<line x1="320" y1="190" x2="266.2609903369994" y2="216.8695048315003" stroke="#6b6660" stroke-width="1.3" stroke-linecap="round"/>
<polygon points="260,220 264.47213595499954,213.29179606750066 268.0498447189992,220.44721359549996" fill="#6b6660"/>
<line x1="400" y1="190" x2="416.1170986264234" y2="214.1756479396351" stroke="#6b6660" stroke-width="1.3" stroke-linecap="round"/>
<polygon points="420,220 412.788897449072,216.394448724536 419.4452998037748,211.9568471547342" fill="#6b6660"/>
<line x1="440" y1="190" x2="573.1553831014581" y2="218.53329637888388" stroke="#6b6660" stroke-width="1.3" stroke-linecap="round"/>
<polygon points="580,220 572.3172667465346,222.4445060351935 573.9934994563816,214.62208672257424" fill="#6b6660"/>
</svg>
