<svg xmlns="http://www.w3.org/2000/svg" viewBox="0 0 720 320" role="img" aria-label="Tool use — giving the agent hands" class="dgm">
<text x="360" y="30" text-anchor="middle" font-size="14" font-weight="600" fill="#2a2622">Tools extend the agent\u2019s reach</text>
<!-- agent in center -->
<g transform="translate(310,140)">
  <rect width="120" height="100" rx="14" fill="#f0d9d1" stroke="#2a2622" stroke-width="1.5"/>
  <g><circle cx="60" cy="40" r="22" fill="#8b3a1f" opacity="0.9"/>
    <text x="60" y="45" text-anchor="middle" font-size="15.399999999999999" font-weight="700" fill="#fdfbf7">AI</text></g>
  <text x="60" y="80" text-anchor="middle" font-size="12" font-weight="600" fill="#2a2622">Agent</text>
</g>
<!-- tools around -->
  <g transform="translate(50,80)">
    <rect width="120" height="80" rx="12" fill="#f3ece6" stroke="#2a2622" stroke-width="1.5"/>
    <g transform="translate(45,40)"><g transform="translate(0,0)">
    <circle cx="0" cy="0" r="10" fill="#fdfbf7" stroke="#2a2622" stroke-width="1.4"/>
    <circle cx="0" cy="0" r="3" fill="#8b3a1f"/>
    <path d="M -8 -10 Q -12 -14 -8 -18" fill="none" stroke="#6b6660" stroke-width="1.2"/>
    <path d="M 8 -10 Q 12 -14 8 -18" fill="none" stroke="#6b6660" stroke-width="1.2"/>
  </g></g>
    <text x="60" y="68" text-anchor="middle" font-size="11" font-weight="600" fill="#2a2622">Sensor API</text>
  </g>
  <text x="110" y="178" text-anchor="middle" font-size="9.5" font-family="monospace" fill="#6b6660">get_temperature(room)</text>
  <g transform="translate(50,200)">
    <rect width="120" height="80" rx="12" fill="#e2ebde" stroke="#2a2622" stroke-width="1.5"/>
    <g transform="translate(45,40)"><g>
    <ellipse cx="0" cy="-11" rx="18" ry="6" fill="#dde7ec" stroke="#2a2622" stroke-width="1.4"/>
    <path d="M -18 -11 L -18 11 Q 0 19 18 11 L 18 -11" fill="#dde7ec" stroke="#2a2622" stroke-width="1.4"/>
    <ellipse cx="0" cy="-11" rx="18" ry="6" fill="none" stroke="#2a2622" stroke-width="1.4"/>
    <ellipse cx="0" cy="-1" rx="16" ry="5" fill="none" stroke="#2a2622" stroke-width="0.8" opacity="0.5"/>
    <ellipse cx="0" cy="11" rx="15" ry="5" fill="none" stroke="#2a2622" stroke-width="0.8" opacity="0.5"/>
  </g></g>
    <text x="60" y="68" text-anchor="middle" font-size="11" font-weight="600" fill="#2a2622">Database</text>
  </g>
  <text x="110" y="194" text-anchor="middle" font-size="9.5" font-family="monospace" fill="#6b6660">query history</text>
  <g transform="translate(540,80)">
    <rect width="120" height="80" rx="12" fill="#f4ead9" stroke="#2a2622" stroke-width="1.5"/>
    <g transform="translate(30,28)"><rect width="30" height="22" rx="4" fill="#fdfbf7" stroke="#2a2622" stroke-width="1.3"/><circle cx="8" cy="11" r="4" fill="#8b3a1f"/></g>
    <text x="60" y="68" text-anchor="middle" font-size="11" font-weight="600" fill="#2a2622">Actuator</text>
  </g>
  <text x="600" y="178" text-anchor="middle" font-size="9.5" font-family="monospace" fill="#6b6660">set_sprinkler(room, on)</text>
  <g transform="translate(540,200)">
    <rect width="120" height="80" rx="12" fill="#dde7ec" stroke="#2a2622" stroke-width="1.5"/>
    <g transform="translate(40,30)"><rect width="30" height="32" rx="2" fill="#fdfbf7" stroke="#2a2622" stroke-width="1.3"/><line x1="4" y1="8" x2="26" y2="8" stroke="#2a2622" stroke-width="0.8"/><line x1="4" y1="14" x2="22" y2="14" stroke="#2a2622" stroke-width="0.8"/><line x1="4" y1="20" x2="26" y2="20" stroke="#2a2622" stroke-width="0.8"/></g>
    <text x="60" y="68" text-anchor="middle" font-size="11" font-weight="600" fill="#2a2622">Knowledge</text>
  </g>
  <text x="600" y="194" text-anchor="middle" font-size="9.5" font-family="monospace" fill="#6b6660">lookup_policy(BBR)</text>
<!-- arrows from agent to tools -->
<line x1="310" y1="165" x2="206.2609903369994" y2="113.1304951684997" stroke="#8b3a1f" stroke-width="1.5" stroke-linecap="round"/>
<polygon points="200,110 208.04984471899925,109.55278640450004 204.47213595499957,116.70820393249937" fill="#8b3a1f"/>
<line x1="310" y1="215" x2="206.82592999054023" y2="238.44865227487722" stroke="#8b3a1f" stroke-width="1.5" stroke-linecap="round"/>
<polygon points="200,240 205.93944557618437,234.5481208517114 207.7124144048961,242.34918369804305" fill="#8b3a1f"/>
<line x1="430" y1="165" x2="533.7390096630006" y2="113.1304951684997" stroke="#8b3a1f" stroke-width="1.5" stroke-linecap="round"/>
<polygon points="540,110 535.5278640450005,116.70820393249937 531.9501552810008,109.55278640450004" fill="#8b3a1f"/>
<line x1="430" y1="215" x2="533.1740700094598" y2="238.44865227487722" stroke="#8b3a1f" stroke-width="1.5" stroke-linecap="round"/>
<polygon points="540,240 532.2875855951039,242.34918369804305 534.0605544238157,234.5481208517114" fill="#8b3a1f"/>
</svg>
