<svg xmlns="http://www.w3.org/2000/svg" viewBox="0 0 720 320" role="img" aria-label="Contents of the architecture document" class="dgm">
<text x="360" y="30" text-anchor="middle" font-size="14" font-weight="600" fill="#2a2622">The architecture document is the contract between design and code</text>
<!-- Central document -->
<g transform="translate(290,55)">
  <rect x="10" y="10" width="140" height="80" rx="3" fill="#fdfbf7" stroke="#2a2622" stroke-width="1"/>
  <rect x="5" y="5" width="140" height="80" rx="3" fill="#fdfbf7" stroke="#2a2622" stroke-width="1"/>
  <rect x="0" y="0" width="140" height="80" rx="3" fill="#f4ead9" stroke="#2a2622" stroke-width="1.5"/>
  <text x="70" y="20" text-anchor="middle" font-size="9.5" font-weight="700" fill="#2a2622">architecture.md</text>
  <line x1="14" y1="32" x2="126" y2="32" stroke="#6b6660" stroke-width="0.8"/>
  <line x1="14" y1="42" x2="126" y2="42" stroke="#6b6660" stroke-width="0.8"/>
  <line x1="14" y1="52" x2="100" y2="52" stroke="#6b6660" stroke-width="0.8"/>
  <line x1="14" y1="62" x2="126" y2="62" stroke="#6b6660" stroke-width="0.8"/>
  <line x1="14" y1="72" x2="80" y2="72" stroke="#6b6660" stroke-width="0.8"/>
</g>
<!-- connector lines from doc bottom to each panel top -->
<line x1="320" y1="145" x2="105" y2="175" stroke="#8b3a1f" stroke-width="1.2" stroke-linecap="round" opacity="0.8"/>
<line x1="345" y1="145" x2="275" y2="175" stroke="#8b3a1f" stroke-width="1.2" stroke-linecap="round" opacity="0.8"/>
<line x1="375" y1="145" x2="445" y2="175" stroke="#8b3a1f" stroke-width="1.2" stroke-linecap="round" opacity="0.8"/>
<line x1="400" y1="145" x2="615" y2="175" stroke="#8b3a1f" stroke-width="1.2" stroke-linecap="round" opacity="0.8"/>
<!-- Panel 1: Diagrams -->
<g transform="translate(30,175)">
  <rect width="150" height="110" rx="6" fill="#fdfbf7" stroke="#2a2622" stroke-width="1.2"/>
  <rect x="50" y="14" width="50" height="20" rx="2" fill="#f3ece6" stroke="#2a2622" stroke-width="1"/>
  <circle cx="22" cy="24" r="6" fill="#fdfbf7" stroke="#2a2622" stroke-width="1"/>
  <circle cx="128" cy="24" r="6" fill="#fdfbf7" stroke="#2a2622" stroke-width="1"/>
  <line x1="28" y1="24" x2="50" y2="24" stroke="#6b6660" stroke-width="1"/>
  <line x1="100" y1="24" x2="122" y2="24" stroke="#6b6660" stroke-width="1"/>
  <rect x="20" y="46" width="30" height="16" rx="2" fill="#fdfbf7" stroke="#2a2622" stroke-width="1"/>
  <rect x="60" y="46" width="30" height="16" rx="2" fill="#fdfbf7" stroke="#2a2622" stroke-width="1"/>
  <rect x="100" y="46" width="30" height="16" rx="2" fill="#fdfbf7" stroke="#2a2622" stroke-width="1"/>
  <text x="75" y="85" text-anchor="middle" font-size="11" font-weight="600" fill="#2a2622">Diagrams</text>
  <text x="75" y="100" text-anchor="middle" font-size="9.5" fill="#6b6660">C4 · sequence · deployment</text>
</g>
<!-- Panel 2: Specifications -->
<g transform="translate(200,175)">
  <rect width="150" height="110" rx="6" fill="#fdfbf7" stroke="#2a2622" stroke-width="1.2"/>
  <rect x="15" y="14" width="120" height="50" rx="3" fill="#f4ead9" stroke="#6b6660" stroke-width="0.8"/>
  <text x="22" y="27" font-size="7.5" font-family="ui-monospace, monospace" fill="#2a2622">{ "temp": "float",</text>
  <text x="22" y="39" font-size="7.5" font-family="ui-monospace, monospace" fill="#2a2622">  "unit": "°C",</text>
  <text x="22" y="51" font-size="7.5" font-family="ui-monospace, monospace" fill="#2a2622">  "ts": "ISO-8601" }</text>
  <text x="75" y="85" text-anchor="middle" font-size="11" font-weight="600" fill="#2a2622">Specifications</text>
  <text x="75" y="100" text-anchor="middle" font-size="9.5" fill="#6b6660">schemas · APIs · state machines</text>
</g>
<!-- Panel 3: Test plan -->
<g transform="translate(370,175)">
  <rect width="150" height="110" rx="6" fill="#fdfbf7" stroke="#2a2622" stroke-width="1.2"/>
  <g transform="translate(22,18)">
    <rect width="11" height="11" rx="2" fill="#e2ebde" stroke="#2a2622" stroke-width="1"/>
    <path d="M 2.5 5.5 L 5 8 L 8.5 3" stroke="#2a2622" stroke-width="1.4" fill="none" stroke-linecap="round" stroke-linejoin="round"/>
    <line x1="18" y1="6" x2="100" y2="6" stroke="#6b6660" stroke-width="1"/>
  </g>
  <g transform="translate(22,34)">
    <rect width="11" height="11" rx="2" fill="#e2ebde" stroke="#2a2622" stroke-width="1"/>
    <path d="M 2.5 5.5 L 5 8 L 8.5 3" stroke="#2a2622" stroke-width="1.4" fill="none" stroke-linecap="round" stroke-linejoin="round"/>
    <line x1="18" y1="6" x2="90" y2="6" stroke="#6b6660" stroke-width="1"/>
  </g>
  <g transform="translate(22,50)">
    <rect width="11" height="11" rx="2" fill="#fdfbf7" stroke="#2a2622" stroke-width="1"/>
    <line x1="18" y1="6" x2="100" y2="6" stroke="#6b6660" stroke-width="1"/>
  </g>
  <text x="75" y="85" text-anchor="middle" font-size="11" font-weight="600" fill="#2a2622">Test plan</text>
  <text x="75" y="100" text-anchor="middle" font-size="9.5" fill="#6b6660">one row per requirement</text>
</g>
<!-- Panel 4: Repository -->
<g transform="translate(540,175)">
  <rect width="150" height="110" rx="6" fill="#fdfbf7" stroke="#2a2622" stroke-width="1.2"/>
  <g font-family="ui-monospace, monospace" font-size="8" fill="#2a2622">
    <text x="14" y="22">project/</text>
    <text x="22" y="34">├ docs/</text>
    <text x="22" y="46">├ sensor-process/</text>
    <text x="22" y="58">├ ai-agent/</text>
    <text x="22" y="70">└ docker-compose.yml</text>
  </g>
  <text x="75" y="85" text-anchor="middle" font-size="11" font-weight="600" fill="#2a2622">Repository</text>
  <text x="75" y="100" text-anchor="middle" font-size="9.5" fill="#6b6660">one folder per container</text>
</g>
<text x="360" y="307" text-anchor="middle" font-size="10" font-style="italic" fill="#6b6660">Approved before any code is written — the design that the implementation must satisfy.</text>
</svg>
