<svg xmlns="http://www.w3.org/2000/svg" viewBox="0 0 720 400" role="img" aria-label="CPS feedback loop" class="dgm">
<text x="360" y="32" text-anchor="middle" font-size="14" font-weight="600" fill="#2a2622">The two halves of a cyber-physical system</text>
<g transform="translate(40,70)">
  <rect width="260" height="290" rx="14" fill="#f3ece6" stroke="#2a2622" stroke-width="1.5"/>
  <text x="130" y="30" text-anchor="middle" font-size="11" font-weight="700" letter-spacing="2" fill="#8b3a1f">PHYSICAL</text>
  <g>
    <polygon points="75,90 130,60 185,90" fill="#f4ead9" stroke="#2a2622" stroke-width="1.5"/>
    <rect x="75" y="90" width="110" height="90" fill="#f3ece6" stroke="#2a2622" stroke-width="1.5"/>
    <rect x="87" y="110" width="22" height="22" fill="#fdfbf7" stroke="#2a2622" stroke-width="1"/>
    <rect x="119" y="110" width="22" height="22" fill="#fdfbf7" stroke="#2a2622" stroke-width="1"/>
    <rect x="151" y="110" width="22" height="22" fill="#fdfbf7" stroke="#2a2622" stroke-width="1"/>
    <rect x="112" y="150" width="36" height="20" fill="#fdfbf7" stroke="#2a2622" stroke-width="1"/>
  </g>
  <!-- thermometer -->
  <line x1="55" y1="120" x2="55" y2="170" stroke="#8b3a1f" stroke-width="2"/>
  <circle cx="55" cy="175" r="6" fill="#8b3a1f"/>
  <!-- smoke -->
  <path d="M 200 100 Q 205 90 200 80 Q 195 70 200 60" fill="none" stroke="#6b6660" stroke-width="1.5"/>
  <text x="130" y="240" text-anchor="middle" font-size="11.5" fill="#2a2622">rooms · ducts · pipes</text>
  <text x="130" y="258" text-anchor="middle" font-size="11.5" fill="#2a2622">temperature · smoke · people</text>
  <text x="130" y="276" text-anchor="middle" font-size="11" font-style="italic" fill="#6b6660">obeys physics</text>
</g>
<g transform="translate(420,70)">
  <rect width="260" height="290" rx="14" fill="#dde7ec" stroke="#2a2622" stroke-width="1.5"/>
  <text x="130" y="30" text-anchor="middle" font-size="11" font-weight="700" letter-spacing="2" fill="#2a5a7a">CYBER</text>
  <g transform="translate(80,55)">
    <rect width="100" height="130" rx="10" fill="#fdfbf7" stroke="#2a2622" stroke-width="1.5"/>
    <g><circle cx="50" cy="40" r="22" fill="#8b3a1f" opacity="0.9"/>
    <text x="50" y="45" text-anchor="middle" font-size="15.399999999999999" font-weight="700" fill="#fdfbf7">AI</text></g>
    <line x1="14" y1="78" x2="86" y2="78" stroke="#6b6660" stroke-width="1"/>
    <line x1="14" y1="90" x2="86" y2="90" stroke="#6b6660" stroke-width="1"/>
    <line x1="14" y1="102" x2="62" y2="102" stroke="#6b6660" stroke-width="1"/>
    <line x1="14" y1="114" x2="78" y2="114" stroke="#6b6660" stroke-width="1"/>
  </g>
  <text x="130" y="240" text-anchor="middle" font-size="11.5" fill="#2a2622">sensor processes · pipelines</text>
  <text x="130" y="258" text-anchor="middle" font-size="11.5" fill="#2a2622">AI agents · actuator commands</text>
  <text x="130" y="276" text-anchor="middle" font-size="11" font-style="italic" fill="#6b6660">obeys code</text>
</g>
<g>
  <line x1="308" y1="150" x2="401" y2="150" stroke="#8b3a1f" stroke-width="2.2" stroke-linecap="round"/>
<polygon points="408,150 401,154 401,146" fill="#8b3a1f"/>
  <text x="358" y="142" text-anchor="middle" font-size="11" font-weight="600" fill="#8b3a1f">sense</text>
  <text x="358" y="170" text-anchor="middle" font-size="10" fill="#6b6660">sensors report state</text>
  <line x1="408" y1="280" x2="315" y2="280" stroke="#8b3a1f" stroke-width="2.2" stroke-linecap="round"/>
<polygon points="308,280 315,276 315,284" fill="#8b3a1f"/>
  <text x="358" y="272" text-anchor="middle" font-size="11" font-weight="600" fill="#8b3a1f">act</text>
  <text x="358" y="298" text-anchor="middle" font-size="10" fill="#6b6660">actuators change state</text>
  <text x="358" y="220" text-anchor="middle" font-size="11" font-style="italic" fill="#6b6660">repeats forever</text>
</g>
</svg>
