<svg xmlns="http://www.w3.org/2000/svg" viewBox="0 0 720 300" role="img" aria-label="Batch processing — accumulate, then process" class="dgm">
<text x="360" y="30" text-anchor="middle" font-size="14" font-weight="600" fill="#2a2622">Batch processing waits for data to settle</text>
<!-- Accumulating pile -->
<g transform="translate(60,90)">
  <text x="100" y="0" text-anchor="middle" font-size="11" font-weight="600" fill="#2a2622">readings collect over 24 h</text>
  <rect x="0" y="30" width="18" height="18" rx="2" fill="#8b3a1f" opacity="0.58354050955375"/><rect x="22" y="30" width="18" height="18" rx="2" fill="#8b3a1f" opacity="0.7709718128537411"/><rect x="44" y="30" width="18" height="18" rx="2" fill="#8b3a1f" opacity="0.7215726175567279"/><rect x="66" y="30" width="18" height="18" rx="2" fill="#8b3a1f" opacity="0.7961893851263965"/><rect x="88" y="30" width="18" height="18" rx="2" fill="#8b3a1f" opacity="0.6096143530530314"/><rect x="110" y="30" width="18" height="18" rx="2" fill="#8b3a1f" opacity="0.7267102860373983"/><rect x="132" y="30" width="18" height="18" rx="2" fill="#8b3a1f" opacity="0.40352455880955557"/><rect x="154" y="30" width="18" height="18" rx="2" fill="#8b3a1f" opacity="0.7676489372213462"/><rect x="0" y="52" width="18" height="18" rx="2" fill="#8b3a1f" opacity="0.7235847980818126"/><rect x="22" y="52" width="18" height="18" rx="2" fill="#8b3a1f" opacity="0.6931860640129712"/><rect x="44" y="52" width="18" height="18" rx="2" fill="#8b3a1f" opacity="0.5171255960491383"/><rect x="66" y="52" width="18" height="18" rx="2" fill="#8b3a1f" opacity="0.5485025180034772"/><rect x="88" y="52" width="18" height="18" rx="2" fill="#8b3a1f" opacity="0.5057863351970471"/><rect x="110" y="52" width="18" height="18" rx="2" fill="#8b3a1f" opacity="0.6737490166833934"/><rect x="132" y="52" width="18" height="18" rx="2" fill="#8b3a1f" opacity="0.709200024276273"/><rect x="154" y="52" width="18" height="18" rx="2" fill="#8b3a1f" opacity="0.5435142031878195"/><rect x="0" y="74" width="18" height="18" rx="2" fill="#8b3a1f" opacity="0.8587639120211747"/><rect x="22" y="74" width="18" height="18" rx="2" fill="#8b3a1f" opacity="0.5152973979428195"/><rect x="44" y="74" width="18" height="18" rx="2" fill="#8b3a1f" opacity="0.8459559591059096"/><rect x="66" y="74" width="18" height="18" rx="2" fill="#8b3a1f" opacity="0.5380312845864945"/><rect x="88" y="74" width="18" height="18" rx="2" fill="#8b3a1f" opacity="0.5762637514330995"/><rect x="110" y="74" width="18" height="18" rx="2" fill="#8b3a1f" opacity="0.7724183237299822"/><rect x="132" y="74" width="18" height="18" rx="2" fill="#8b3a1f" opacity="0.5858081241263571"/><rect x="154" y="74" width="18" height="18" rx="2" fill="#8b3a1f" opacity="0.7054831018822191"/><rect x="0" y="96" width="18" height="18" rx="2" fill="#8b3a1f" opacity="0.8390222849035274"/><rect x="22" y="96" width="18" height="18" rx="2" fill="#8b3a1f" opacity="0.8456289260315373"/><rect x="44" y="96" width="18" height="18" rx="2" fill="#8b3a1f" opacity="0.8688018586332698"/><rect x="66" y="96" width="18" height="18" rx="2" fill="#8b3a1f" opacity="0.8184163412112202"/><rect x="88" y="96" width="18" height="18" rx="2" fill="#8b3a1f" opacity="0.6944401091490404"/><rect x="110" y="96" width="18" height="18" rx="2" fill="#8b3a1f" opacity="0.45881973307334767"/><rect x="132" y="96" width="18" height="18" rx="2" fill="#8b3a1f" opacity="0.7008670308171119"/><rect x="154" y="96" width="18" height="18" rx="2" fill="#8b3a1f" opacity="0.8139018300883945"/><rect x="0" y="118" width="18" height="18" rx="2" fill="#8b3a1f" opacity="0.5668999559238751"/><rect x="22" y="118" width="18" height="18" rx="2" fill="#8b3a1f" opacity="0.525986113932835"/><rect x="44" y="118" width="18" height="18" rx="2" fill="#8b3a1f" opacity="0.8523212324054299"/><rect x="66" y="118" width="18" height="18" rx="2" fill="#8b3a1f" opacity="0.7713871294324837"/><rect x="88" y="118" width="18" height="18" rx="2" fill="#8b3a1f" opacity="0.46364006968798993"/><rect x="110" y="118" width="18" height="18" rx="2" fill="#8b3a1f" opacity="0.7159823563562582"/><rect x="132" y="118" width="18" height="18" rx="2" fill="#8b3a1f" opacity="0.6987346145678066"/><rect x="154" y="118" width="18" height="18" rx="2" fill="#8b3a1f" opacity="0.6035633653706605"/><rect x="0" y="140" width="18" height="18" rx="2" fill="#8b3a1f" opacity="0.5607849888860854"/><rect x="22" y="140" width="18" height="18" rx="2" fill="#8b3a1f" opacity="0.5762522720347163"/><rect x="44" y="140" width="18" height="18" rx="2" fill="#8b3a1f" opacity="0.7823558529045014"/><rect x="66" y="140" width="18" height="18" rx="2" fill="#8b3a1f" opacity="0.5957910090488178"/><rect x="88" y="140" width="18" height="18" rx="2" fill="#8b3a1f" opacity="0.6263058693155441"/><rect x="110" y="140" width="18" height="18" rx="2" fill="#8b3a1f" opacity="0.7103859762084832"/><rect x="132" y="140" width="18" height="18" rx="2" fill="#8b3a1f" opacity="0.4389996080473376"/><rect x="154" y="140" width="18" height="18" rx="2" fill="#8b3a1f" opacity="0.6505474567343614"/>
</g>
<line x1="280" y1="150" x2="353" y2="150" stroke="#8b3a1f" stroke-width="2.2" stroke-linecap="round"/>
<polygon points="360,150 353,154 353,146" fill="#8b3a1f"/>
<text x="320" y="138" text-anchor="middle" font-size="10" font-weight="600" fill="#8b3a1f">2 a.m.</text>
<text x="320" y="170" text-anchor="middle" font-size="9.5" fill="#6b6660">scheduled run</text>
<!-- batch job box -->
<g transform="translate(380,110)">
  <rect width="160" height="80" rx="10" fill="#e2ebde" stroke="#2a2622" stroke-width="1.5"/>
  <text x="80" y="34" text-anchor="middle" font-size="11" font-weight="600" fill="#2a2622">Batch job</text>
  <text x="80" y="52" text-anchor="middle" font-size="10" fill="#6b6660">aggregate · ML training</text>
  <text x="80" y="68" text-anchor="middle" font-size="10" fill="#6b6660">~30 minutes</text>
</g>
<line x1="540" y1="150" x2="603" y2="150" stroke="#8b3a1f" stroke-width="2.2" stroke-linecap="round"/>
<polygon points="610,150 603,154 603,146" fill="#8b3a1f"/>
<g transform="translate(610,130)">
  <rect width="80" height="40" rx="6" fill="#f4ead9" stroke="#2a2622" stroke-width="1.5"/>
  <text x="40" y="20" text-anchor="middle" font-size="11" font-weight="600" fill="#2a2622">Reports</text>
  <text x="40" y="34" text-anchor="middle" font-size="9.5" fill="#6b6660">models</text>
</g>
<text x="360" y="290" text-anchor="middle" font-size="10" font-style="italic" fill="#6b6660">latency: minutes to hours — for the answers that don't have to be live</text>
</svg>
