<svg xmlns="http://www.w3.org/2000/svg" viewBox="0 0 720 280" role="img" aria-label="Three generations of automation" class="dgm">
<text x="360" y="30" text-anchor="middle" font-size="14" font-weight="600" fill="#2a2622">From a switch to a thinker</text>
  <g transform="translate(30,70)">
    <rect width="120" height="120" rx="12" fill="#f3ece6" stroke="#2a2622" stroke-width="1.5"/>
    <g transform="translate(60,52)"><rect x="-20" y="-16" width="40" height="32" rx="4" fill="#fdfbf7" stroke="#2a2622" stroke-width="1.4"/><circle cx="0" cy="0" r="6" fill="#8b3a1f"/><line x1="0" y1="-16" x2="0" y2="-22" stroke="#2a2622" stroke-width="1.4"/></g>
    <text x="60" y="100" text-anchor="middle" font-size="12" font-weight="600" fill="#2a2622">Rule</text>
    <text x="60" y="116" text-anchor="middle" font-size="9.5" fill="#6b6660">if temp &lt; 20: heat on</text>
  </g>
  <line x1="150" y1="130" x2="193" y2="130" stroke="#8b3a1f" stroke-width="1.6" stroke-linecap="round"/>
<polygon points="200,130 193,134 193,126" fill="#8b3a1f"/>
  <g transform="translate(200,70)">
    <rect width="120" height="120" rx="12" fill="#dde7ec" stroke="#2a2622" stroke-width="1.5"/>
    <g transform="translate(60,52)">
     <circle cx="-30" cy="-16" r="6" fill="#fdfbf7" stroke="#2a2622" stroke-width="1.3"/><circle cx="-30" cy="0" r="6" fill="#fdfbf7" stroke="#2a2622" stroke-width="1.3"/><circle cx="-30" cy="16" r="6" fill="#fdfbf7" stroke="#2a2622" stroke-width="1.3"/>
     <circle cx="0" cy="-16" r="6" fill="#fdfbf7" stroke="#2a2622" stroke-width="1.3"/><circle cx="0" cy="0" r="6" fill="#fdfbf7" stroke="#2a2622" stroke-width="1.3"/><circle cx="0" cy="16" r="6" fill="#fdfbf7" stroke="#2a2622" stroke-width="1.3"/>
     <circle cx="30" cy="0" r="6" fill="#fdfbf7" stroke="#2a2622" stroke-width="1.3"/>
     <line x1="-24" y1="-16" x2="-6" y2="-16" stroke="#6b6660" stroke-width="0.6"/><line x1="-24" y1="-16" x2="-6" y2="0" stroke="#6b6660" stroke-width="0.6"/><line x1="-24" y1="-16" x2="-6" y2="16" stroke="#6b6660" stroke-width="0.6"/><line x1="-24" y1="0" x2="-6" y2="-16" stroke="#6b6660" stroke-width="0.6"/><line x1="-24" y1="0" x2="-6" y2="0" stroke="#6b6660" stroke-width="0.6"/><line x1="-24" y1="0" x2="-6" y2="16" stroke="#6b6660" stroke-width="0.6"/><line x1="-24" y1="16" x2="-6" y2="-16" stroke="#6b6660" stroke-width="0.6"/><line x1="-24" y1="16" x2="-6" y2="0" stroke="#6b6660" stroke-width="0.6"/><line x1="-24" y1="16" x2="-6" y2="16" stroke="#6b6660" stroke-width="0.6"/>
     <line x1="6" y1="-16" x2="24" y2="0" stroke="#6b6660" stroke-width="0.6"/><line x1="6" y1="0" x2="24" y2="0" stroke="#6b6660" stroke-width="0.6"/><line x1="6" y1="16" x2="24" y2="0" stroke="#6b6660" stroke-width="0.6"/>
   </g>
    <text x="60" y="100" text-anchor="middle" font-size="12" font-weight="600" fill="#2a2622">ML model</text>
    <text x="60" y="116" text-anchor="middle" font-size="9.5" fill="#6b6660">learn the pattern</text>
  </g>
  <line x1="320" y1="130" x2="363" y2="130" stroke="#8b3a1f" stroke-width="1.6" stroke-linecap="round"/>
<polygon points="370,130 363,134 363,126" fill="#8b3a1f"/>
  <g transform="translate(370,70)">
    <rect width="120" height="120" rx="12" fill="#f4ead9" stroke="#2a2622" stroke-width="1.5"/>
    <g transform="translate(60,52)"><rect x="-30" y="-22" width="60" height="44" rx="22" fill="#fdfbf7" stroke="#2a2622" stroke-width="1.4"/><text x="0" y="6" text-anchor="middle" font-size="14" font-weight="700" fill="#8b3a1f">LLM</text></g>
    <text x="60" y="100" text-anchor="middle" font-size="12" font-weight="600" fill="#2a2622">LLM</text>
    <text x="60" y="116" text-anchor="middle" font-size="9.5" fill="#6b6660">language reasoning</text>
  </g>
  <line x1="490" y1="130" x2="533" y2="130" stroke="#8b3a1f" stroke-width="1.6" stroke-linecap="round"/>
<polygon points="540,130 533,134 533,126" fill="#8b3a1f"/>
  <g transform="translate(540,70)">
    <rect width="120" height="120" rx="12" fill="#f0d9d1" stroke="#2a2622" stroke-width="1.5"/>
    <g transform="translate(60,52)"><g><circle cx="0" cy="-4" r="18" fill="#8b3a1f" opacity="0.9"/>
    <text x="0" y="1" text-anchor="middle" font-size="12.6" font-weight="700" fill="#fdfbf7">AI</text></g>
     <line x1="-22" y1="20" x2="-10" y2="14" stroke="#2a2622" stroke-width="1.4"/>
     <line x1="22" y1="20" x2="10" y2="14" stroke="#2a2622" stroke-width="1.4"/>
   </g>
    <text x="60" y="100" text-anchor="middle" font-size="12" font-weight="600" fill="#2a2622">Agent</text>
    <text x="60" y="116" text-anchor="middle" font-size="9.5" fill="#6b6660">perceive · think · act</text>
  </g>
<text x="360" y="222" text-anchor="middle" font-size="11" font-style="italic" fill="#6b6660">each one adapts to more situations than the one before</text>
<text x="60" y="248" font-size="10" fill="#6b6660">brittle, predictable</text>
<text x="660" y="248" text-anchor="end" font-size="10" fill="#6b6660">flexible, harder to verify</text>
</svg>
