<svg xmlns="http://www.w3.org/2000/svg" viewBox="0 0 720 320" role="img" aria-label="Medallion architecture — bronze, silver, gold" class="dgm">
<text x="360" y="30" text-anchor="middle" font-size="14" font-weight="600" fill="#2a2622">Data refines through three tiers</text>
  <g transform="translate(40,70)">
    <rect width="200" height="200" rx="14" fill="#f0d9b8" stroke="#2a2622" stroke-width="1.5"/>
    <circle cx="100" cy="60" r="34" fill="#d9a370" stroke="#2a2622" stroke-width="1.5"/>
    <text x="100" y="66" text-anchor="middle" font-size="13" font-weight="700" fill="#fdfbf7">B</text>
    <text x="100" y="118" text-anchor="middle" font-size="14" font-weight="700" fill="#2a2622">Bronze</text>
    <text x="100" y="136" text-anchor="middle" font-size="11" font-style="italic" fill="#6b6660">raw · unfiltered</text>
    <line x1="30" y1="152" x2="170" y2="152" stroke="#2a2622" stroke-width="0.6" opacity="0.4"/>
    <text x="100" y="172" text-anchor="middle" font-size="10" fill="#2a2622">every reading, exactly as it arrived</text>
  </g>
  <line x1="240" y1="170" x2="263" y2="170" stroke="#8b3a1f" stroke-width="1.8" stroke-linecap="round"/>
<polygon points="270,170 263,174 263,166" fill="#8b3a1f"/><text x="255" y="160" text-anchor="middle" font-size="9" fill="#8b3a1f">refine</text>
  <g transform="translate(260,70)">
    <rect width="200" height="200" rx="14" fill="#e6e6e6" stroke="#2a2622" stroke-width="1.5"/>
    <circle cx="100" cy="60" r="34" fill="#a8a8a8" stroke="#2a2622" stroke-width="1.5"/>
    <text x="100" y="66" text-anchor="middle" font-size="13" font-weight="700" fill="#fdfbf7">S</text>
    <text x="100" y="118" text-anchor="middle" font-size="14" font-weight="700" fill="#2a2622">Silver</text>
    <text x="100" y="136" text-anchor="middle" font-size="11" font-style="italic" fill="#6b6660">clean · validated</text>
    <line x1="30" y1="152" x2="170" y2="152" stroke="#2a2622" stroke-width="0.6" opacity="0.4"/>
    <text x="100" y="172" text-anchor="middle" font-size="10" fill="#2a2622">deduplicated, typed, joined</text>
  </g>
  <line x1="460" y1="170" x2="483" y2="170" stroke="#8b3a1f" stroke-width="1.8" stroke-linecap="round"/>
<polygon points="490,170 483,174 483,166" fill="#8b3a1f"/><text x="475" y="160" text-anchor="middle" font-size="9" fill="#8b3a1f">refine</text>
  <g transform="translate(480,70)">
    <rect width="200" height="200" rx="14" fill="#f4e5b8" stroke="#2a2622" stroke-width="1.5"/>
    <circle cx="100" cy="60" r="34" fill="#d9b34a" stroke="#2a2622" stroke-width="1.5"/>
    <text x="100" y="66" text-anchor="middle" font-size="13" font-weight="700" fill="#fdfbf7">G</text>
    <text x="100" y="118" text-anchor="middle" font-size="14" font-weight="700" fill="#2a2622">Gold</text>
    <text x="100" y="136" text-anchor="middle" font-size="11" font-style="italic" fill="#6b6660">curated · business-ready</text>
    <line x1="30" y1="152" x2="170" y2="152" stroke="#2a2622" stroke-width="0.6" opacity="0.4"/>
    <text x="100" y="172" text-anchor="middle" font-size="10" fill="#2a2622">aggregates · features · KPIs</text>
  </g>
</svg>
