<svg xmlns="http://www.w3.org/2000/svg" viewBox="0 0 720 340" role="img" aria-label="Service-oriented architecture" class="dgm">
<text x="360" y="30" text-anchor="middle" font-size="14" font-weight="600" fill="#2a2622">Each service owns one job</text>
  <g transform="translate(40,80)">
    <rect width="120" height="80" rx="12" fill="#f3ece6" stroke="#2a2622" stroke-width="1.5"/>
    <text x="60" y="36" text-anchor="middle" font-size="12" font-weight="600" fill="#2a2622">Sensor service</text>
    <text x="60" y="54" text-anchor="middle" font-size="10" fill="#6b6660">reads BuildSim</text>
    <!-- container hint -->
    <text x="60" y="70" text-anchor="middle" font-size="9" font-family="monospace" fill="#6b6660">docker</text>
  </g>
  <g transform="translate(220,80)">
    <rect width="120" height="80" rx="12" fill="#dde7ec" stroke="#2a2622" stroke-width="1.5"/>
    <text x="60" y="36" text-anchor="middle" font-size="12" font-weight="600" fill="#2a2622">Ingestion service</text>
    <text x="60" y="54" text-anchor="middle" font-size="10" fill="#6b6660">validates · stores</text>
    <!-- container hint -->
    <text x="60" y="70" text-anchor="middle" font-size="9" font-family="monospace" fill="#6b6660">docker</text>
  </g>
  <g transform="translate(400,80)">
    <rect width="120" height="80" rx="12" fill="#f4ead9" stroke="#2a2622" stroke-width="1.5"/>
    <text x="60" y="36" text-anchor="middle" font-size="12" font-weight="600" fill="#2a2622">Detection service</text>
    <text x="60" y="54" text-anchor="middle" font-size="10" fill="#6b6660">anomaly model</text>
    <!-- container hint -->
    <text x="60" y="70" text-anchor="middle" font-size="9" font-family="monospace" fill="#6b6660">docker</text>
  </g>
  <g transform="translate(580,80)">
    <rect width="120" height="80" rx="12" fill="#f0d9d1" stroke="#2a2622" stroke-width="1.5"/>
    <text x="60" y="36" text-anchor="middle" font-size="12" font-weight="600" fill="#2a2622">Safety service</text>
    <text x="60" y="54" text-anchor="middle" font-size="10" fill="#6b6660">agent · decides</text>
    <!-- container hint -->
    <text x="60" y="70" text-anchor="middle" font-size="9" font-family="monospace" fill="#6b6660">docker</text>
  </g>
  <g transform="translate(40,230)">
    <rect width="120" height="80" rx="12" fill="#e2ebde" stroke="#2a2622" stroke-width="1.5"/>
    <text x="60" y="36" text-anchor="middle" font-size="12" font-weight="600" fill="#2a2622">Storage</text>
    <text x="60" y="54" text-anchor="middle" font-size="10" fill="#6b6660">time-series DB</text>
    <!-- container hint -->
    <text x="60" y="70" text-anchor="middle" font-size="9" font-family="monospace" fill="#6b6660">docker</text>
  </g>
  <g transform="translate(220,230)">
    <rect width="120" height="80" rx="12" fill="#f3ece6" stroke="#2a2622" stroke-width="1.5"/>
    <text x="60" y="36" text-anchor="middle" font-size="12" font-weight="600" fill="#2a2622">Dashboard</text>
    <text x="60" y="54" text-anchor="middle" font-size="10" fill="#6b6660">UI · operators</text>
    <!-- container hint -->
    <text x="60" y="70" text-anchor="middle" font-size="9" font-family="monospace" fill="#6b6660">docker</text>
  </g>
  <g transform="translate(400,230)">
    <rect width="120" height="80" rx="12" fill="#dde7ec" stroke="#2a2622" stroke-width="1.5"/>
    <text x="60" y="36" text-anchor="middle" font-size="12" font-weight="600" fill="#2a2622">Actuator service</text>
    <text x="60" y="54" text-anchor="middle" font-size="10" fill="#6b6660">commands BuildSim</text>
    <!-- container hint -->
    <text x="60" y="70" text-anchor="middle" font-size="9" font-family="monospace" fill="#6b6660">docker</text>
  </g>
  <g transform="translate(580,230)">
    <rect width="120" height="80" rx="12" fill="#f4ead9" stroke="#2a2622" stroke-width="1.5"/>
    <text x="60" y="36" text-anchor="middle" font-size="12" font-weight="600" fill="#2a2622">Audit log</text>
    <text x="60" y="54" text-anchor="middle" font-size="10" fill="#6b6660">every decision</text>
    <!-- container hint -->
    <text x="60" y="70" text-anchor="middle" font-size="9" font-family="monospace" fill="#6b6660">docker</text>
  </g>
<!-- connecting arrows (just a few key flows) -->
<line x1="160" y1="120" x2="213" y2="120" stroke="#8b3a1f" stroke-width="1.5" stroke-linecap="round"/>
<polygon points="220,120 213,124 213,116" fill="#8b3a1f"/>
<line x1="340" y1="120" x2="393" y2="120" stroke="#8b3a1f" stroke-width="1.5" stroke-linecap="round"/>
<polygon points="400,120 393,124 393,116" fill="#8b3a1f"/>
<line x1="520" y1="120" x2="573" y2="120" stroke="#8b3a1f" stroke-width="1.5" stroke-linecap="round"/>
<polygon points="580,120 573,124 573,116" fill="#8b3a1f"/>
<line x1="340" y1="160" x2="453.8449562342426" y2="221.66601796021473" stroke="#8b3a1f" stroke-width="1.5" stroke-linecap="round"/>
<polygon points="460,225 451.93982364007957,225.18318582636184 455.75008882840564,218.14885009406763" fill="#8b3a1f"/>
<line x1="280" y1="160" x2="166.15504376575743" y2="221.66601796021473" stroke="#6b6660" stroke-width="1.2" stroke-linecap="round"/>
<polygon points="160,225 164.24991117159442,218.14885009406763 168.06017635992043,225.18318582636184" fill="#6b6660"/>
<line x1="640" y1="160" x2="640" y2="218" stroke="#6b6660" stroke-width="1.2" stroke-linecap="round"/>
<polygon points="640,225 636,218 644,218" fill="#6b6660"/>
<line x1="640" y1="310" x2="526.6407830863536" y2="272.2135943621179" stroke="#8b3a1f" stroke-width="1.5" stroke-linecap="round"/>
<polygon points="520,270 527.905694150421,268.41886116991583 525.3758720222862,276.0083275543199" fill="#8b3a1f"/>
</svg>
