<svg xmlns="http://www.w3.org/2000/svg" viewBox="0 0 720 300" role="img" aria-label="Modeling notations spectrum" class="dgm">
<text x="360" y="30" text-anchor="middle" font-size="14" font-weight="600" fill="#2a2622">Three notations along a spectrum of formality</text>
<!-- Whiteboard panel -->
<g transform="translate(70,60)">
  <rect width="130" height="135" rx="8" fill="#fdfbf7" stroke="#2a2622" stroke-width="1.5"/>
  <rect x="14" y="16" width="102" height="62" rx="3" fill="#fdfbf7" stroke="#6b6660" stroke-width="1" stroke-dasharray="3 2"/>
  <path d="M 28 38 Q 38 28 50 38 Q 62 48 75 32" fill="none" stroke="#2a2622" stroke-width="1.4" stroke-linecap="round"/>
  <circle cx="32" cy="62" r="7" fill="none" stroke="#2a2622" stroke-width="1.2"/>
  <line x1="39" y1="62" x2="58" y2="62" stroke="#2a2622" stroke-width="1.2"/>
  <rect x="58" y="54" width="22" height="16" fill="none" stroke="#2a2622" stroke-width="1.2"/>
  <line x1="92" y1="22" x2="102" y2="32" stroke="#8b3a1f" stroke-width="1.2"/>
  <line x1="102" y1="22" x2="92" y2="32" stroke="#8b3a1f" stroke-width="1.2"/>
  <text x="65" y="105" text-anchor="middle" font-size="11" font-weight="600" fill="#2a2622">Whiteboard</text>
  <text x="65" y="120" text-anchor="middle" font-size="10" fill="#6b6660">brainstorming</text>
</g>
<!-- C4 + Mermaid (highlighted) -->
<g transform="translate(295,55)">
  <rect width="130" height="145" rx="8" fill="#f3ece6" stroke="#8b3a1f" stroke-width="2"/>
  <rect x="14" y="14" width="102" height="20" rx="3" fill="#fdfbf7" stroke="#8b3a1f" stroke-width="1"/>
  <text x="65" y="28" text-anchor="middle" font-size="9" fill="#8b3a1f">Context</text>
  <rect x="14" y="38" width="48" height="20" rx="3" fill="#fdfbf7" stroke="#2a2622" stroke-width="1"/>
  <rect x="68" y="38" width="48" height="20" rx="3" fill="#fdfbf7" stroke="#2a2622" stroke-width="1"/>
  <line x1="62" y1="48" x2="68" y2="48" stroke="#6b6660" stroke-width="1"/>
  <text x="65" y="74" text-anchor="middle" font-size="8" fill="#6b6660">Containers</text>
  <rect x="14" y="80" width="30" height="14" rx="2" fill="#fdfbf7" stroke="#2a2622" stroke-width="1"/>
  <rect x="50" y="80" width="30" height="14" rx="2" fill="#fdfbf7" stroke="#2a2622" stroke-width="1"/>
  <rect x="86" y="80" width="30" height="14" rx="2" fill="#fdfbf7" stroke="#2a2622" stroke-width="1"/>
  <text x="65" y="115" text-anchor="middle" font-size="11" font-weight="600" fill="#8b3a1f">C4 + Mermaid</text>
  <text x="65" y="130" text-anchor="middle" font-size="10" fill="#8b3a1f">project documentation</text>
</g>
<!-- UML / SysML -->
<g transform="translate(520,60)">
  <rect width="130" height="135" rx="8" fill="#fdfbf7" stroke="#2a2622" stroke-width="1.5"/>
  <rect x="14" y="14" width="46" height="36" fill="#fdfbf7" stroke="#2a2622" stroke-width="1"/>
  <line x1="14" y1="24" x2="60" y2="24" stroke="#2a2622" stroke-width="1"/>
  <line x1="14" y1="34" x2="60" y2="34" stroke="#2a2622" stroke-width="1"/>
  <rect x="70" y="14" width="46" height="36" fill="#fdfbf7" stroke="#2a2622" stroke-width="1"/>
  <line x1="70" y1="24" x2="116" y2="24" stroke="#2a2622" stroke-width="1"/>
  <line x1="70" y1="34" x2="116" y2="34" stroke="#2a2622" stroke-width="1"/>
  <line x1="60" y1="32" x2="70" y2="32" stroke="#2a2622" stroke-width="1"/>
  <polygon points="70,28 76,32 70,36" fill="none" stroke="#2a2622" stroke-width="1"/>
  <rect x="14" y="58" width="46" height="22" fill="#fdfbf7" stroke="#2a2622" stroke-width="1"/>
  <line x1="14" y1="66" x2="60" y2="66" stroke="#2a2622" stroke-width="1"/>
  <rect x="70" y="58" width="46" height="22" fill="#fdfbf7" stroke="#2a2622" stroke-width="1"/>
  <line x1="70" y1="66" x2="116" y2="66" stroke="#2a2622" stroke-width="1"/>
  <text x="65" y="105" text-anchor="middle" font-size="11" font-weight="600" fill="#2a2622">UML / SysML</text>
  <text x="65" y="120" text-anchor="middle" font-size="10" fill="#6b6660">safety-critical, large teams</text>
</g>
<!-- Spectrum axis -->
<line x1="70" y1="235" x2="650" y2="235" stroke="#6b6660" stroke-width="1.5"/>
<polygon points="650,235 642,231 642,239" fill="#6b6660"/>
<text x="70" y="252" text-anchor="start" font-size="10" fill="#6b6660">lower overhead</text>
<text x="650" y="252" text-anchor="end" font-size="10" fill="#6b6660">higher precision</text>
<circle cx="135" cy="235" r="5" fill="#fdfbf7" stroke="#2a2622" stroke-width="1.5"/>
<circle cx="360" cy="235" r="7" fill="#8b3a1f" stroke="#2a2622" stroke-width="1.5"/>
<circle cx="585" cy="235" r="5" fill="#fdfbf7" stroke="#2a2622" stroke-width="1.5"/>
<text x="360" y="285" text-anchor="middle" font-size="10" font-style="italic" fill="#6b6660">The middle option earns its keep by living in the repository as text, beside the code.</text>
</svg>
