<svg xmlns="http://www.w3.org/2000/svg" viewBox="0 0 720 320" role="img" aria-label="REST vs MQTT communication" class="dgm">
<text x="360" y="30" text-anchor="middle" font-size="14" font-weight="600" fill="#2a2622">Two ways for components to talk</text>
<!-- LEFT: REST -->
<g transform="translate(40,70)">
  <rect width="290" height="220" rx="14" fill="#fdfbf7" stroke="#2a2622" stroke-width="1.5"/>
  <text x="145" y="28" text-anchor="middle" font-size="12" font-weight="700" letter-spacing="2" fill="#8b3a1f">REST · request / response</text>
  <rect x="30" y="58" width="80" height="50" rx="6" fill="#f3ece6" stroke="#2a2622" stroke-width="1.4"/>
  <text x="70" y="88" text-anchor="middle" font-size="11" font-weight="600" fill="#2a2622">Client</text>
  <rect x="180" y="58" width="80" height="50" rx="6" fill="#dde7ec" stroke="#2a2622" stroke-width="1.4"/>
  <text x="220" y="88" text-anchor="middle" font-size="11" font-weight="600" fill="#2a2622">Server</text>
  <line x1="112" y1="76" x2="171" y2="76" stroke="#8b3a1f" stroke-width="1.6" stroke-linecap="round"/>
<polygon points="178,76 171,80 171,72" fill="#8b3a1f"/>
  <text x="145" y="68" text-anchor="middle" font-size="10" fill="#8b3a1f">GET /temp</text>
  <line x1="178" y1="98" x2="119" y2="98" stroke="#8b3a1f" stroke-width="1.6" stroke-linecap="round"/>
<polygon points="112,98 119,94 119,102" fill="#8b3a1f"/>
  <text x="145" y="116" text-anchor="middle" font-size="10" fill="#8b3a1f">{ value: 22.4 }</text>
  <text x="145" y="160" text-anchor="middle" font-size="11" font-style="italic" fill="#6b6660">"Like a phone call."</text>
  <text x="145" y="186" text-anchor="middle" font-size="10" fill="#2a2622">synchronous · 1-to-1 · request must wait</text>
</g>
<!-- RIGHT: MQTT -->
<g transform="translate(360,70)">
  <rect width="320" height="220" rx="14" fill="#fdfbf7" stroke="#2a2622" stroke-width="1.5"/>
  <text x="160" y="28" text-anchor="middle" font-size="12" font-weight="700" letter-spacing="2" fill="#2a5a7a">MQTT · publish / subscribe</text>
  <!-- publisher -->
  <rect x="20" y="58" width="68" height="40" rx="6" fill="#f3ece6" stroke="#2a2622" stroke-width="1.4"/>
  <text x="54" y="82" text-anchor="middle" font-size="10.5" font-weight="600" fill="#2a2622">Sensor</text>
  <line x1="90" y1="78" x2="125" y2="78" stroke="#8b3a1f" stroke-width="1.5" stroke-linecap="round"/>
<polygon points="132,78 125,82 125,74" fill="#8b3a1f"/>
  <!-- broker -->
  <rect x="132" y="58" width="60" height="100" rx="8" fill="#dde7ec" stroke="#2a2622" stroke-width="1.5"/>
  <text x="162" y="80" text-anchor="middle" font-size="10" font-weight="700" fill="#2a5a7a">BROKER</text>
  <text x="162" y="100" text-anchor="middle" font-size="9" fill="#6b6660">topic:</text>
  <text x="162" y="114" text-anchor="middle" font-size="9" font-family="monospace" fill="#2a2622">sensors/#</text>
  <!-- subscribers -->
  <line x1="192" y1="68" x2="235.13593527016357" y2="59.37281294596729" stroke="#8b3a1f" stroke-width="1.4" stroke-linecap="round"/>
<polygon points="242,58 235.9203998107163,63.29513564873097 234.35147072961084,55.45049024320361" fill="#8b3a1f"/>
  <line x1="192" y1="108" x2="235" y2="108" stroke="#8b3a1f" stroke-width="1.4" stroke-linecap="round"/>
<polygon points="242,108 235,112 235,104" fill="#8b3a1f"/>
  <line x1="192" y1="148" x2="235.13593527016357" y2="156.6271870540327" stroke="#8b3a1f" stroke-width="1.4" stroke-linecap="round"/>
<polygon points="242,158 234.35147072961084,160.5495097567964 235.9203998107163,152.704864351269" fill="#8b3a1f"/>
  <rect x="242" y="44" width="64" height="28" rx="4" fill="#e2ebde" stroke="#2a2622" stroke-width="1.2"/>
  <text x="274" y="62" text-anchor="middle" font-size="10" fill="#2a2622">DB writer</text>
  <rect x="242" y="94" width="64" height="28" rx="4" fill="#f4ead9" stroke="#2a2622" stroke-width="1.2"/>
  <text x="274" y="112" text-anchor="middle" font-size="10" fill="#2a2622">Detector</text>
  <rect x="242" y="144" width="64" height="28" rx="4" fill="#f0d9d1" stroke="#2a2622" stroke-width="1.2"/>
  <text x="274" y="162" text-anchor="middle" font-size="10" fill="#2a2622">Dashboard</text>
  <text x="160" y="194" text-anchor="middle" font-size="11" font-style="italic" fill="#6b6660">"Like a notice board."</text>
</g>
</svg>
