<svg xmlns="http://www.w3.org/2000/svg" viewBox="0 0 720 300" role="img" aria-label="Stream processing — rolling window" class="dgm">
<text x="360" y="30" text-anchor="middle" font-size="14" font-weight="600" fill="#2a2622">Stream processing acts on each reading as it arrives</text>
<!-- Timeline -->
<line x1="40" y1="150" x2="680" y2="150" stroke="#6b6660" stroke-width="1.5"/>
<polygon points="680,150 672,146 672,154" fill="#6b6660"/>
<text x="680" y="172" text-anchor="end" font-size="10" fill="#6b6660">time</text>
<!-- Dots on timeline -->
<circle cx="60" cy="137.69106782026958" r="4" fill="#8b3a1f" opacity="0.85"/><line x1="60" y1="141.69106782026958" x2="60" y2="150" stroke="#8b3a1f" stroke-width="0.8" opacity="0.4"/><circle cx="86" cy="127.0343622399297" r="4" fill="#8b3a1f" opacity="0.85"/><line x1="86" y1="131.0343622399297" x2="86" y2="150" stroke="#8b3a1f" stroke-width="0.8" opacity="0.4"/><circle cx="112" cy="116.5242500668093" r="4" fill="#8b3a1f" opacity="0.85"/><line x1="112" y1="120.5242500668093" x2="112" y2="150" stroke="#8b3a1f" stroke-width="0.8" opacity="0.4"/><circle cx="138" cy="110.62357793840603" r="4" fill="#8b3a1f" opacity="0.85"/><line x1="138" y1="114.62357793840603" x2="138" y2="150" stroke="#8b3a1f" stroke-width="0.8" opacity="0.4"/><circle cx="164" cy="111.58371493426253" r="4" fill="#8b3a1f" opacity="0.85"/><line x1="164" y1="115.58371493426253" x2="164" y2="150" stroke="#8b3a1f" stroke-width="0.8" opacity="0.4"/><circle cx="190" cy="117.19975237774231" r="4" fill="#8b3a1f" opacity="0.85"/><line x1="190" y1="121.19975237774231" x2="190" y2="150" stroke="#8b3a1f" stroke-width="0.8" opacity="0.4"/><circle cx="216" cy="117.56667198738626" r="4" fill="#8b3a1f" opacity="0.85"/><line x1="216" y1="121.56667198738626" x2="216" y2="150" stroke="#8b3a1f" stroke-width="0.8" opacity="0.4"/><circle cx="242" cy="131.87911622016276" r="4" fill="#8b3a1f" opacity="0.85"/><line x1="242" y1="135.87911622016276" x2="242" y2="150" stroke="#8b3a1f" stroke-width="0.8" opacity="0.4"/><circle cx="268" cy="134.63456497475886" r="4" fill="#8b3a1f" opacity="0.85"/><line x1="268" y1="138.63456497475886" x2="268" y2="150" stroke="#8b3a1f" stroke-width="0.8" opacity="0.4"/><circle cx="294" cy="126.50066350388242" r="4" fill="#8b3a1f" opacity="0.85"/><line x1="294" y1="130.50066350388244" x2="294" y2="150" stroke="#8b3a1f" stroke-width="0.8" opacity="0.4"/><circle cx="320" cy="125.77916331486284" r="4" fill="#8b3a1f" opacity="0.85"/><line x1="320" y1="129.77916331486284" x2="320" y2="150" stroke="#8b3a1f" stroke-width="0.8" opacity="0.4"/><circle cx="346" cy="111.55590499704161" r="4" fill="#8b3a1f" opacity="0.85"/><line x1="346" y1="115.55590499704161" x2="346" y2="150" stroke="#8b3a1f" stroke-width="0.8" opacity="0.4"/><circle cx="372" cy="118.93975903179386" r="4" fill="#8b3a1f" opacity="0.85"/><line x1="372" y1="122.93975903179386" x2="372" y2="150" stroke="#8b3a1f" stroke-width="0.8" opacity="0.4"/><circle cx="398" cy="108.64861095322684" r="4" fill="#8b3a1f" opacity="0.85"/><line x1="398" y1="112.64861095322684" x2="398" y2="150" stroke="#8b3a1f" stroke-width="0.8" opacity="0.4"/><circle cx="424" cy="116.10491830722312" r="4" fill="#8b3a1f" opacity="0.85"/><line x1="424" y1="120.10491830722312" x2="424" y2="150" stroke="#8b3a1f" stroke-width="0.8" opacity="0.4"/><circle cx="450" cy="117.81720669365123" r="4" fill="#8b3a1f" opacity="0.85"/><line x1="450" y1="121.81720669365123" x2="450" y2="150" stroke="#8b3a1f" stroke-width="0.8" opacity="0.4"/><circle cx="476" cy="111.82886435517696" r="4" fill="#8b3a1f" opacity="0.85"/><line x1="476" y1="115.82886435517696" x2="476" y2="150" stroke="#8b3a1f" stroke-width="0.8" opacity="0.4"/><circle cx="502" cy="119.28605489134205" r="4" fill="#8b3a1f" opacity="0.85"/><line x1="502" y1="123.28605489134205" x2="502" y2="150" stroke="#8b3a1f" stroke-width="0.8" opacity="0.4"/><circle cx="528" cy="126.7034703795506" r="4" fill="#8b3a1f" opacity="0.85"/><line x1="528" y1="130.7034703795506" x2="528" y2="150" stroke="#8b3a1f" stroke-width="0.8" opacity="0.4"/><circle cx="554" cy="111.6536993070161" r="4" fill="#8b3a1f" opacity="0.85"/><line x1="554" y1="115.6536993070161" x2="554" y2="150" stroke="#8b3a1f" stroke-width="0.8" opacity="0.4"/><circle cx="580" cy="135.71824416129854" r="4" fill="#8b3a1f" opacity="0.85"/><line x1="580" y1="139.71824416129854" x2="580" y2="150" stroke="#8b3a1f" stroke-width="0.8" opacity="0.4"/><circle cx="606" cy="131.96205067462418" r="4" fill="#8b3a1f" opacity="0.85"/><line x1="606" y1="135.96205067462418" x2="606" y2="150" stroke="#8b3a1f" stroke-width="0.8" opacity="0.4"/><circle cx="632" cy="125.7825230769656" r="4" fill="#8b3a1f" opacity="0.85"/><line x1="632" y1="129.78252307696562" x2="632" y2="150" stroke="#8b3a1f" stroke-width="0.8" opacity="0.4"/><circle cx="658" cy="112.21007159271315" r="4" fill="#8b3a1f" opacity="0.85"/><line x1="658" y1="116.21007159271315" x2="658" y2="150" stroke="#8b3a1f" stroke-width="0.8" opacity="0.4"/>
<!-- Rolling window -->
<rect x="380" y="80" width="200" height="100" rx="10" fill="#f3ece6" stroke="#8b3a1f" stroke-width="2" opacity="0.8"/>
<text x="480" y="98" text-anchor="middle" font-size="11" font-weight="600" fill="#8b3a1f">rolling window</text>
<text x="480" y="114" text-anchor="middle" font-size="10" fill="#8b3a1f">last 60 seconds</text>
<!-- Window movement arrow -->
<line x1="580" y1="130" x2="633" y2="130" stroke="#8b3a1f" stroke-width="1.5" stroke-linecap="round"/>
<polygon points="640,130 633,134 633,126" fill="#8b3a1f"/>
<!-- Operator -->
<g transform="translate(280,210)">
  <rect width="200" height="50" rx="10" fill="#e2ebde" stroke="#2a2622" stroke-width="1.5"/>
  <text x="100" y="24" text-anchor="middle" font-size="11" font-weight="600" fill="#2a2622">Operator</text>
  <text x="100" y="40" text-anchor="middle" font-size="10" fill="#6b6660">moving average · spike detection</text>
</g>
<line x1="480" y1="182" x2="386.7407481379993" y2="208.1125905213602" stroke="#8b3a1f" stroke-width="1.4" stroke-linecap="round"/>
<polygon points="380,210 385.6622284359194,204.2607344425035 387.81926784007914,211.96444660021692" fill="#8b3a1f"/>
<text x="360" y="290" text-anchor="middle" font-size="10" font-style="italic" fill="#6b6660">latency: milliseconds — answers appear before the data finishes arriving</text>
</svg>
